<svg xmlns="http://www.w3.org/2000/svg" version="1.1" viewBox="0.00 0.00 497.00 238.00" width="497.00" height="238.00">
<g stroke-width="2.00" fill="none" stroke-linecap="butt">
<path stroke="#90b7d1" d="&#10;  M 238.22 114.31&#10;  C 239.24 113.90 240.51 113.67 241.49 113.21&#10;  Q 251.02 108.80 254.60 98.52&#10;  Q 263.57 72.71 273.98 43.15&#10;  A 0.54 0.54 0.0 0 0 273.47 42.43&#10;  Q 252.93 42.42 232.65 42.40&#10;  Q 218.68 42.39 206.28 48.35&#10;  C 190.83 55.77 176.89 69.38 171.11 85.79&#10;  C 162.68 109.71 153.04 137.25 143.95 164.51&#10;  Q 139.63 177.49 134.83 190.78&#10;  Q 134.62 191.38 134.75 191.70&#10;  A 0.65 0.65 0.0 0 0 135.36 192.12&#10;  Q 157.73 192.12 180.07 192.25&#10;  C 205.54 192.39 231.64 173.24 240.20 149.65&#10;  Q 246.28 132.91 251.91 115.61&#10;  A 0.73 0.73 0.0 0 0 251.21 114.66&#10;  L 238.30 114.70&#10;  Q 237.28 114.70 238.22 114.31"/>
<path stroke="#90b7d1" d="&#10;  M 131.47 114.32&#10;  C 133.00 113.75 134.50 113.35 135.98 112.65&#10;  Q 144.44 108.66 147.74 99.18&#10;  Q 157.22 71.96 167.18 43.67&#10;  Q 167.63 42.39 166.27 42.40&#10;  Q 148.72 42.55 131.16 42.38&#10;  Q 122.17 42.29 115.24 43.39&#10;  C 100.82 45.69 87.20 54.41 77.31 65.22&#10;  Q 68.60 74.75 65.36 83.98&#10;  Q 54.39 115.32 43.97 145.26&#10;  C 42.54 149.35 41.43 153.45 40.01 157.46&#10;  Q 34.14 173.99 28.20 191.38&#10;  A 0.57 0.57 0.0 0 0 28.74 192.13&#10;  Q 50.60 192.10 74.20 192.21&#10;  C 96.23 192.32 118.49 177.42 129.44 158.74&#10;  Q 132.67 153.23 136.30 142.50&#10;  Q 141.03 128.55 145.62 115.65&#10;  A 0.74 0.74 0.0 0 0 144.92 114.66&#10;  L 131.54 114.71&#10;  Q 130.44 114.71 131.47 114.32"/>
<path stroke="#90b7d1" d="&#10;  M 342.84 84.91&#10;  L 357.14 43.06&#10;  Q 357.35 42.45 356.70 42.44&#10;  Q 345.96 42.38 335.56 42.51&#10;  C 316.53 42.75 298.98 53.03 286.93 67.23&#10;  Q 279.83 75.60 276.63 84.74&#10;  Q 259.92 132.45 243.87 179.51&#10;  Q 241.87 185.40 239.72 191.28&#10;  A 0.53 0.53 0.0 0 0 240.22 191.99&#10;  L 281.28 192.04&#10;  A 1.24 1.24 0.0 0 0 282.47 191.20&#10;  Q 296.84 149.55 313.07 102.63&#10;  Q 314.28 99.14 316.39 96.45&#10;  Q 326.01 84.24 341.13 85.99&#10;  A 1.61 1.61 0.0 0 0 342.84 84.91"/>
<path stroke="#90b7d1" d="&#10;  M 390.56 127.68&#10;  C 387.88 138.22 378.45 147.86 367.09 147.82&#10;  Q 349.39 147.77 334.12 147.87&#10;  A 0.78 0.78 0.0 0 0 333.38 148.40&#10;  L 318.63 190.85&#10;  Q 318.18 192.14 319.54 192.13&#10;  Q 340.67 192.11 363.27 192.24&#10;  Q 375.30 192.31 385.63 188.01&#10;  C 399.77 182.12 413.00 170.96 420.16 157.95&#10;  Q 423.17 152.49 427.24 140.66&#10;  Q 440.44 102.35 454.41 62.20&#10;  C 456.58 55.96 458.33 49.47 460.83 43.33&#10;  A 0.65 0.64 -79.0 0 0 460.24 42.44&#10;  L 420.72 42.45&#10;  A 0.97 0.97 0.0 0 0 419.81 43.09&#10;  L 399.43 102.00&#10;  A 0.99 0.99 0.0 0 1 398.49 102.67&#10;  L 384.98 102.62&#10;  Q 384.18 102.61 384.44 101.86&#10;  L 404.70 43.31&#10;  A 0.67 0.67 0.0 0 0 404.07 42.43&#10;  L 370.55 42.41&#10;  A 0.99 0.99 0.0 0 0 369.61 43.08&#10;  Q 364.21 58.74 358.74 74.26&#10;  C 354.55 86.15 350.79 98.59 346.54 110.48&#10;  Q 345.33 113.86 345.55 117.76&#10;  C 345.97 125.42 353.36 127.07 359.74 127.05&#10;  Q 374.53 127.01 390.04 127.02&#10;  Q 390.73 127.02 390.56 127.68"/>
<path stroke="#90b7d1" d="&#10;  M 215.53 81.64&#10;  C 210.35 81.67 205.68 86.80 203.87 91.18&#10;  Q 201.83 96.12 199.59 103.10&#10;  A 0.42 0.41 9.0 0 0 199.99 103.64&#10;  L 221.70 103.61&#10;  A 0.85 0.85 0.0 0 0 222.50 103.04&#10;  L 229.87 82.11&#10;  A 0.36 0.35 -80.5 0 0 229.54 81.64&#10;  Q 222.87 81.59 215.53 81.64"/>
<path stroke="#90b7d1" d="&#10;  M 182.75 154.29&#10;  C 187.82 154.26 194.99 155.06 199.33 153.53&#10;  Q 205.71 151.29 208.29 144.65&#10;  Q 211.17 137.24 213.81 128.87&#10;  A 0.32 0.32 0.0 0 0 213.50 128.45&#10;  L 191.26 128.45&#10;  A 0.80 0.80 0.0 0 0 190.50 129.00&#10;  L 182.38 153.79&#10;  A 0.39 0.38 9.2 0 0 182.75 154.29"/>
<path stroke="#90b7d1" d="&#10;  M 110.35 81.57&#10;  C 98.61 81.39 95.95 94.72 92.92 103.14&#10;  A 0.36 0.36 0.0 0 0 93.26 103.63&#10;  L 114.73 103.63&#10;  A 1.31 1.30 -80.2 0 0 115.96 102.76&#10;  L 123.17 82.40&#10;  Q 123.43 81.66 122.65 81.67&#10;  Q 116.76 81.67 110.35 81.57"/>
<path stroke="#90b7d1" d="&#10;  M 107.15 129.37&#10;  Q 107.51 128.46 106.53 128.46&#10;  L 84.93 128.44&#10;  A 1.11 1.11 0.0 0 0 83.87 129.21&#10;  L 75.76 153.72&#10;  A 0.39 0.39 0.0 0 0 76.12 154.23&#10;  Q 82.22 154.36 88.57 154.31&#10;  C 96.79 154.23 101.17 147.60 103.51 139.96&#10;  Q 105.25 134.28 107.15 129.37"/>
</g>
<path fill="#ffffff" d="&#10;  M 0.00 0.00&#10;  L 497.00 0.00&#10;  L 497.00 238.00&#10;  L 0.00 238.00&#10;  L 0.00 0.00&#10;  Z&#10;  M 238.22 114.31&#10;  C 239.24 113.90 240.51 113.67 241.49 113.21&#10;  Q 251.02 108.80 254.60 98.52&#10;  Q 263.57 72.71 273.98 43.15&#10;  A 0.54 0.54 0.0 0 0 273.47 42.43&#10;  Q 252.93 42.42 232.65 42.40&#10;  Q 218.68 42.39 206.28 48.35&#10;  C 190.83 55.77 176.89 69.38 171.11 85.79&#10;  C 162.68 109.71 153.04 137.25 143.95 164.51&#10;  Q 139.63 177.49 134.83 190.78&#10;  Q 134.62 191.38 134.75 191.70&#10;  A 0.65 0.65 0.0 0 0 135.36 192.12&#10;  Q 157.73 192.12 180.07 192.25&#10;  C 205.54 192.39 231.64 173.24 240.20 149.65&#10;  Q 246.28 132.91 251.91 115.61&#10;  A 0.73 0.73 0.0 0 0 251.21 114.66&#10;  L 238.30 114.70&#10;  Q 237.28 114.70 238.22 114.31&#10;  Z&#10;  M 131.47 114.32&#10;  C 133.00 113.75 134.50 113.35 135.98 112.65&#10;  Q 144.44 108.66 147.74 99.18&#10;  Q 157.22 71.96 167.18 43.67&#10;  Q 167.63 42.39 166.27 42.40&#10;  Q 148.72 42.55 131.16 42.38&#10;  Q 122.17 42.29 115.24 43.39&#10;  C 100.82 45.69 87.20 54.41 77.31 65.22&#10;  Q 68.60 74.75 65.36 83.98&#10;  Q 54.39 115.32 43.97 145.26&#10;  C 42.54 149.35 41.43 153.45 40.01 157.46&#10;  Q 34.14 173.99 28.20 191.38&#10;  A 0.57 0.57 0.0 0 0 28.74 192.13&#10;  Q 50.60 192.10 74.20 192.21&#10;  C 96.23 192.32 118.49 177.42 129.44 158.74&#10;  Q 132.67 153.23 136.30 142.50&#10;  Q 141.03 128.55 145.62 115.65&#10;  A 0.74 0.74 0.0 0 0 144.92 114.66&#10;  L 131.54 114.71&#10;  Q 130.44 114.71 131.47 114.32&#10;  Z&#10;  M 342.84 84.91&#10;  L 357.14 43.06&#10;  Q 357.35 42.45 356.70 42.44&#10;  Q 345.96 42.38 335.56 42.51&#10;  C 316.53 42.75 298.98 53.03 286.93 67.23&#10;  Q 279.83 75.60 276.63 84.74&#10;  Q 259.92 132.45 243.87 179.51&#10;  Q 241.87 185.40 239.72 191.28&#10;  A 0.53 0.53 0.0 0 0 240.22 191.99&#10;  L 281.28 192.04&#10;  A 1.24 1.24 0.0 0 0 282.47 191.20&#10;  Q 296.84 149.55 313.07 102.63&#10;  Q 314.28 99.14 316.39 96.45&#10;  Q 326.01 84.24 341.13 85.99&#10;  A 1.61 1.61 0.0 0 0 342.84 84.91&#10;  Z&#10;  M 390.56 127.68&#10;  C 387.88 138.22 378.45 147.86 367.09 147.82&#10;  Q 349.39 147.77 334.12 147.87&#10;  A 0.78 0.78 0.0 0 0 333.38 148.40&#10;  L 318.63 190.85&#10;  Q 318.18 192.14 319.54 192.13&#10;  Q 340.67 192.11 363.27 192.24&#10;  Q 375.30 192.31 385.63 188.01&#10;  C 399.77 182.12 413.00 170.96 420.16 157.95&#10;  Q 423.17 152.49 427.24 140.66&#10;  Q 440.44 102.35 454.41 62.20&#10;  C 456.58 55.96 458.33 49.47 460.83 43.33&#10;  A 0.65 0.64 -79.0 0 0 460.24 42.44&#10;  L 420.72 42.45&#10;  A 0.97 0.97 0.0 0 0 419.81 43.09&#10;  L 399.43 102.00&#10;  A 0.99 0.99 0.0 0 1 398.49 102.67&#10;  L 384.98 102.62&#10;  Q 384.18 102.61 384.44 101.86&#10;  L 404.70 43.31&#10;  A 0.67 0.67 0.0 0 0 404.07 42.43&#10;  L 370.55 42.41&#10;  A 0.99 0.99 0.0 0 0 369.61 43.08&#10;  Q 364.21 58.74 358.74 74.26&#10;  C 354.55 86.15 350.79 98.59 346.54 110.48&#10;  Q 345.33 113.86 345.55 117.76&#10;  C 345.97 125.42 353.36 127.07 359.74 127.05&#10;  Q 374.53 127.01 390.04 127.02&#10;  Q 390.73 127.02 390.56 127.68&#10;  Z"/>
<path fill="#206ea3" d="&#10;  M 238.30 114.70&#10;  L 251.21 114.66&#10;  A 0.73 0.73 0.0 0 1 251.91 115.61&#10;  Q 246.28 132.91 240.20 149.65&#10;  C 231.64 173.24 205.54 192.39 180.07 192.25&#10;  Q 157.73 192.12 135.36 192.12&#10;  A 0.65 0.65 0.0 0 1 134.75 191.70&#10;  Q 134.62 191.38 134.83 190.78&#10;  Q 139.63 177.49 143.95 164.51&#10;  C 153.04 137.25 162.68 109.71 171.11 85.79&#10;  C 176.89 69.38 190.83 55.77 206.28 48.35&#10;  Q 218.68 42.39 232.65 42.40&#10;  Q 252.93 42.42 273.47 42.43&#10;  A 0.54 0.54 0.0 0 1 273.98 43.15&#10;  Q 263.57 72.71 254.60 98.52&#10;  Q 251.02 108.80 241.49 113.21&#10;  C 240.51 113.67 239.24 113.90 238.22 114.31&#10;  Q 237.28 114.70 238.30 114.70&#10;  Z&#10;  M 215.53 81.64&#10;  C 210.35 81.67 205.68 86.80 203.87 91.18&#10;  Q 201.83 96.12 199.59 103.10&#10;  A 0.42 0.41 9.0 0 0 199.99 103.64&#10;  L 221.70 103.61&#10;  A 0.85 0.85 0.0 0 0 222.50 103.04&#10;  L 229.87 82.11&#10;  A 0.36 0.35 -80.5 0 0 229.54 81.64&#10;  Q 222.87 81.59 215.53 81.64&#10;  Z&#10;  M 182.75 154.29&#10;  C 187.82 154.26 194.99 155.06 199.33 153.53&#10;  Q 205.71 151.29 208.29 144.65&#10;  Q 211.17 137.24 213.81 128.87&#10;  A 0.32 0.32 0.0 0 0 213.50 128.45&#10;  L 191.26 128.45&#10;  A 0.80 0.80 0.0 0 0 190.50 129.00&#10;  L 182.38 153.79&#10;  A 0.39 0.38 9.2 0 0 182.75 154.29&#10;  Z"/>
<path fill="#206ea3" d="&#10;  M 131.54 114.71&#10;  L 144.92 114.66&#10;  A 0.74 0.74 0.0 0 1 145.62 115.65&#10;  Q 141.03 128.55 136.30 142.50&#10;  Q 132.67 153.23 129.44 158.74&#10;  C 118.49 177.42 96.23 192.32 74.20 192.21&#10;  Q 50.60 192.10 28.74 192.13&#10;  A 0.57 0.57 0.0 0 1 28.20 191.38&#10;  Q 34.14 173.99 40.01 157.46&#10;  C 41.43 153.45 42.54 149.35 43.97 145.26&#10;  Q 54.39 115.32 65.36 83.98&#10;  Q 68.60 74.75 77.31 65.22&#10;  C 87.20 54.41 100.82 45.69 115.24 43.39&#10;  Q 122.17 42.29 131.16 42.38&#10;  Q 148.72 42.55 166.27 42.40&#10;  Q 167.63 42.39 167.18 43.67&#10;  Q 157.22 71.96 147.74 99.18&#10;  Q 144.44 108.66 135.98 112.65&#10;  C 134.50 113.35 133.00 113.75 131.47 114.32&#10;  Q 130.44 114.71 131.54 114.71&#10;  Z&#10;  M 110.35 81.57&#10;  C 98.61 81.39 95.95 94.72 92.92 103.14&#10;  A 0.36 0.36 0.0 0 0 93.26 103.63&#10;  L 114.73 103.63&#10;  A 1.31 1.30 -80.2 0 0 115.96 102.76&#10;  L 123.17 82.40&#10;  Q 123.43 81.66 122.65 81.67&#10;  Q 116.76 81.67 110.35 81.57&#10;  Z&#10;  M 107.15 129.37&#10;  Q 107.51 128.46 106.53 128.46&#10;  L 84.93 128.44&#10;  A 1.11 1.11 0.0 0 0 83.87 129.21&#10;  L 75.76 153.72&#10;  A 0.39 0.39 0.0 0 0 76.12 154.23&#10;  Q 82.22 154.36 88.57 154.31&#10;  C 96.79 154.23 101.17 147.60 103.51 139.96&#10;  Q 105.25 134.28 107.15 129.37&#10;  Z"/>
<path fill="#206ea3" d="&#10;  M 357.14 43.06&#10;  L 342.84 84.91&#10;  A 1.61 1.61 0.0 0 1 341.13 85.99&#10;  Q 326.01 84.24 316.39 96.45&#10;  Q 314.28 99.14 313.07 102.63&#10;  Q 296.84 149.55 282.47 191.20&#10;  A 1.24 1.24 0.0 0 1 281.28 192.04&#10;  L 240.22 191.99&#10;  A 0.53 0.53 0.0 0 1 239.72 191.28&#10;  Q 241.87 185.40 243.87 179.51&#10;  Q 259.92 132.45 276.63 84.74&#10;  Q 279.83 75.60 286.93 67.23&#10;  C 298.98 53.03 316.53 42.75 335.56 42.51&#10;  Q 345.96 42.38 356.70 42.44&#10;  Q 357.35 42.45 357.14 43.06&#10;  Z"/>
<path fill="#206ea3" d="&#10;  M 390.04 127.02&#10;  Q 374.53 127.01 359.74 127.05&#10;  C 353.36 127.07 345.97 125.42 345.55 117.76&#10;  Q 345.33 113.86 346.54 110.48&#10;  C 350.79 98.59 354.55 86.15 358.74 74.26&#10;  Q 364.21 58.74 369.61 43.08&#10;  A 0.99 0.99 0.0 0 1 370.55 42.41&#10;  L 404.07 42.43&#10;  A 0.67 0.67 0.0 0 1 404.70 43.31&#10;  L 384.44 101.86&#10;  Q 384.18 102.61 384.98 102.62&#10;  L 398.49 102.67&#10;  A 0.99 0.99 0.0 0 0 399.43 102.00&#10;  L 419.81 43.09&#10;  A 0.97 0.97 0.0 0 1 420.72 42.45&#10;  L 460.24 42.44&#10;  A 0.65 0.64 -79.0 0 1 460.83 43.33&#10;  C 458.33 49.47 456.58 55.96 454.41 62.20&#10;  Q 440.44 102.35 427.24 140.66&#10;  Q 423.17 152.49 420.16 157.95&#10;  C 413.00 170.96 399.77 182.12 385.63 188.01&#10;  Q 375.30 192.31 363.27 192.24&#10;  Q 340.67 192.11 319.54 192.13&#10;  Q 318.18 192.14 318.63 190.85&#10;  L 333.38 148.40&#10;  A 0.78 0.78 0.0 0 1 334.12 147.87&#10;  Q 349.39 147.77 367.09 147.82&#10;  C 378.45 147.86 387.88 138.22 390.56 127.68&#10;  Q 390.73 127.02 390.04 127.02&#10;  Z"/>
<path fill="#ffffff" d="&#10;  M 92.92 103.14&#10;  C 95.95 94.72 98.61 81.39 110.35 81.57&#10;  Q 116.76 81.67 122.65 81.67&#10;  Q 123.43 81.66 123.17 82.40&#10;  L 115.96 102.76&#10;  A 1.31 1.30 -80.2 0 1 114.73 103.63&#10;  L 93.26 103.63&#10;  A 0.36 0.36 0.0 0 1 92.92 103.14&#10;  Z"/>
<path fill="#ffffff" d="&#10;  M 203.87 91.18&#10;  C 205.68 86.80 210.35 81.67 215.53 81.64&#10;  Q 222.87 81.59 229.54 81.64&#10;  A 0.36 0.35 -80.5 0 1 229.87 82.11&#10;  L 222.50 103.04&#10;  A 0.85 0.85 0.0 0 1 221.70 103.61&#10;  L 199.99 103.64&#10;  A 0.42 0.41 9.0 0 1 199.59 103.10&#10;  Q 201.83 96.12 203.87 91.18&#10;  Z"/>
<path fill="#ffffff" d="&#10;  M 107.15 129.37&#10;  Q 105.25 134.28 103.51 139.96&#10;  C 101.17 147.60 96.79 154.23 88.57 154.31&#10;  Q 82.22 154.36 76.12 154.23&#10;  A 0.39 0.39 0.0 0 1 75.76 153.72&#10;  L 83.87 129.21&#10;  A 1.11 1.11 0.0 0 1 84.93 128.44&#10;  L 106.53 128.46&#10;  Q 107.51 128.46 107.15 129.37&#10;  Z"/>
<path fill="#ffffff" d="&#10;  M 182.75 154.29&#10;  A 0.39 0.38 9.2 0 1 182.38 153.79&#10;  L 190.50 129.00&#10;  A 0.80 0.80 0.0 0 1 191.26 128.45&#10;  L 213.50 128.45&#10;  A 0.32 0.32 0.0 0 1 213.81 128.87&#10;  Q 211.17 137.24 208.29 144.65&#10;  Q 205.71 151.29 199.33 153.53&#10;  C 194.99 155.06 187.82 154.26 182.75 154.29&#10;  Z"/>
</svg>